<svg width="13" height="17" viewBox="0 0 13 17" fill="none" xmlns="http://www.w3.org/2000/svg">
<path d="M2.34736 2.31114C2.34736 2.31114 2.63946 2.00934 3.22367 1.40575C3.80788 0.802158 4.93157 0.500363 6.59473 0.500363C8.25788 0.500363 9.67367 1.10395 10.8421 2.31114C12.0105 3.51832 12.5947 4.96262 12.5947 6.64405C12.5947 7.4201 12.3263 8.35243 11.7895 9.44105C11.2526 10.5297 10.5737 11.6021 9.75262 12.6584C8.93157 13.7147 8.31052 14.5015 7.88946 15.0189C7.46841 15.5362 7.12104 15.9458 6.84736 16.2476C6.67894 16.4201 6.51052 16.4201 6.34209 16.2476C6.04736 15.9027 5.69999 15.4931 5.29999 15.0189C4.89999 14.5446 4.2842 13.7686 3.45262 12.6907C2.62104 11.6129 1.93683 10.5297 1.39999 9.44105C0.863148 8.35243 0.594727 7.4201 0.594727 6.64405C0.594727 4.96262 1.17894 3.51832 2.34736 2.31114ZM6.59473 15.5039C7.01578 15.0297 7.45788 14.5069 7.92104 13.9356C8.3842 13.3644 8.95788 12.6153 9.64209 11.6883C10.3263 10.7614 10.8789 9.84524 11.3 8.93985C11.721 8.03447 11.9316 7.2692 11.9316 6.64405C11.9316 5.13508 11.4105 3.84706 10.3684 2.78C9.32631 1.71293 8.06841 1.1794 6.59473 1.1794C5.12104 1.1794 3.86315 1.71293 2.82104 2.78C1.77894 3.84706 1.25788 5.13508 1.25788 6.64405C1.25788 7.2692 1.47367 8.03447 1.90525 8.93985C2.33683 9.84524 2.88946 10.7614 3.56315 11.6883C4.23683 12.6153 4.80525 13.3644 5.26841 13.9356C5.73157 14.5069 6.17367 15.0297 6.59473 15.5039ZM4.44736 4.47759C4.44736 4.47759 4.59473 4.3267 4.88946 4.0249C5.1842 3.72311 5.75262 3.57221 6.59473 3.57221C7.43683 3.57221 8.15262 3.874 8.74209 4.47759C9.33157 5.08119 9.62631 5.80873 9.62631 6.66022C9.62631 7.51171 9.33157 8.23926 8.74209 8.84285C8.15262 9.44644 7.43683 9.74823 6.59473 9.74823C5.75262 9.74823 5.03683 9.44644 4.44736 8.84285C3.85788 8.23926 3.56315 7.51171 3.56315 6.66022C3.56315 5.80873 3.85788 5.08119 4.44736 4.47759ZM6.59473 9.06919C6.91052 9.06919 7.21578 9.00452 7.51052 8.87518C7.80525 8.74584 8.05788 8.57339 8.26841 8.35782C8.47894 8.14225 8.64736 7.88357 8.77367 7.58177C8.89999 7.27998 8.96315 6.96741 8.96315 6.64405C8.96315 5.97579 8.73157 5.40454 8.26841 4.93029C7.80525 4.45604 7.24736 4.21891 6.59473 4.21891C5.94209 4.21891 5.3842 4.45604 4.92104 4.93029C4.45788 5.40454 4.22631 5.97579 4.22631 6.64405C4.22631 7.31231 4.45788 7.88357 4.92104 8.35782C5.3842 8.83207 5.94209 9.06919 6.59473 9.06919Z" fill="url(#paint0_linear_2079_856)"/>
<defs>
<linearGradient id="paint0_linear_2079_856" x1="9.1359" y1="-0.750693" x2="-0.99868" y2="1.07432" gradientUnits="userSpaceOnUse">
<stop offset="0.0252672" stop-color="#5BD6DD"/>
<stop offset="0.689" stop-color="#036DED"/>
</linearGradient>
</defs>
</svg>
