<svg width="13" height="12" viewBox="0 0 13 12" fill="none" xmlns="http://www.w3.org/2000/svg">
<path d="M11.3525 0.499701C11.6963 0.499701 11.9893 0.677276 12.2314 1.03243C12.4736 1.38758 12.5947 1.80932 12.5947 2.29765V10.0888C12.5947 10.5771 12.4736 10.9988 12.2314 11.354C11.9893 11.7091 11.6963 11.8867 11.3525 11.8867H1.83691C1.49316 11.8867 1.2002 11.7091 0.958008 11.354C0.71582 10.9988 0.594727 10.5771 0.594727 10.0888V2.29765C0.594727 1.80932 0.71582 1.38758 0.958008 1.03243C1.2002 0.677276 1.49316 0.499701 1.83691 0.499701H11.3525ZM12.1025 10.0888V2.29765C12.1025 1.98689 12.0283 1.73163 11.8799 1.53186C11.7314 1.33208 11.5557 1.2322 11.3525 1.2322H1.83691C1.63379 1.2322 1.45801 1.33208 1.30957 1.53186C1.16113 1.73163 1.08691 1.98689 1.08691 2.29765V10.0888C1.08691 10.3995 1.16113 10.6548 1.30957 10.8546C1.45801 11.0543 1.63379 11.1542 1.83691 11.1542H11.3525C11.5557 11.1542 11.7314 11.0543 11.8799 10.8546C12.0283 10.6548 12.1025 10.3995 12.1025 10.0888ZM11.2119 1.99799C11.3369 1.86481 11.4463 1.89256 11.54 2.08123C11.6338 2.26991 11.6182 2.43083 11.4932 2.56401L7.3916 6.55946C7.1416 6.80363 6.87598 6.92571 6.59473 6.92571C6.31348 6.92571 6.04785 6.80363 5.79785 6.55946L1.69629 2.56401C1.57129 2.43083 1.55566 2.26991 1.64941 2.08123C1.74316 1.89256 1.85254 1.86481 1.97754 1.99799L6.0791 5.99344C6.42285 6.30419 6.7666 6.30419 7.11035 5.99344L11.2119 1.99799ZM4.67285 6.2598C4.81348 6.12662 4.93457 6.14882 5.03613 6.32639C5.1377 6.50397 5.12598 6.67044 5.00098 6.82582L2.00098 10.3884C1.9541 10.4328 1.89941 10.455 1.83691 10.455C1.75879 10.455 1.69629 10.4106 1.64941 10.3218C1.54004 10.1443 1.54785 9.97778 1.67285 9.82241L4.67285 6.2598ZM11.5166 9.82241C11.6416 9.97778 11.6494 10.1443 11.54 10.3218C11.4932 10.4106 11.4307 10.455 11.3525 10.455C11.29 10.455 11.2354 10.4328 11.1885 10.3884L8.18848 6.82582C8.06348 6.67044 8.05176 6.50397 8.15332 6.32639C8.25488 6.14882 8.37598 6.12662 8.5166 6.2598L11.5166 9.82241Z" fill="url(#paint0_linear_2079_888)"/>
<defs>
<linearGradient id="paint0_linear_2079_888" x1="9.1359" y1="-0.397582" x2="-0.70684" y2="2.07371" gradientUnits="userSpaceOnUse">
<stop offset="0.0252672" stop-color="#5BD6DD"/>
<stop offset="0.689" stop-color="#036DED"/>
</linearGradient>
</defs>
</svg>
