<svg width="13" height="15" viewBox="0 0 13 15" fill="none" xmlns="http://www.w3.org/2000/svg">
<path d="M12.285 11.1341C12.441 11.2655 12.5385 11.4392 12.5775 11.6552C12.6165 11.8711 12.5892 12.0824 12.4956 12.289L11.8871 13.5002C11.6843 13.8945 11.3957 14.1574 11.0213 14.2889C10.7248 14.3827 10.4128 14.4297 10.0852 14.4297C8.32217 14.4297 6.30176 13.0589 4.02392 10.3172C1.29363 7.03104 0.193712 4.22369 0.724168 1.89518C0.833379 1.4445 1.0518 1.09711 1.37944 0.852989L2.38574 0.120636C2.55736 0.00796604 2.73288 -0.0248957 2.9123 0.0220499C3.09172 0.0689955 3.23603 0.186359 3.34524 0.374143L4.96001 3.30355C5.06923 3.49134 5.10823 3.6932 5.07703 3.90915C5.04582 4.1251 4.96001 4.30819 4.8196 4.45842L3.9069 5.30344C3.76649 5.43489 3.73529 5.58512 3.81329 5.75412L3.8835 5.92313C4.25794 6.73059 4.8157 7.58031 5.55678 8.47228C6.29786 9.36425 7.00383 10.0356 7.6747 10.4862L7.81512 10.5708C7.95553 10.6646 8.08034 10.6271 8.18956 10.4581L8.89163 9.35955C9.01644 9.19055 9.16856 9.08727 9.34798 9.04971C9.5274 9.01215 9.69511 9.0591 9.85113 9.19055L12.285 11.1341ZM12.1446 12.0355C12.2382 11.8289 12.207 11.6599 12.051 11.5284L9.61711 9.58489C9.46109 9.45344 9.32848 9.48161 9.21926 9.66939L8.51719 10.7679C8.40798 10.9369 8.26756 11.0402 8.09595 11.0778C7.92433 11.1153 7.76051 11.0872 7.60449 10.9933L7.48748 10.9088C6.78541 10.4393 6.04823 9.73981 5.27595 8.81029C4.50367 7.88076 3.92251 6.99349 3.53246 6.14846L3.46226 6.00763C3.38425 5.81984 3.36085 5.62267 3.39205 5.41611C3.42325 5.20955 3.50906 5.04055 3.64948 4.9091L4.56217 4.06408C4.71819 3.93263 4.74159 3.77301 4.63238 3.58523L3.8835 2.23319L3.01761 0.655817C2.9084 0.468034 2.76798 0.430477 2.59637 0.543147L1.59006 1.2755C1.35603 1.4445 1.20002 1.68862 1.12201 2.00785C0.622757 4.16736 1.68367 6.82448 4.30475 9.97923C6.92582 13.134 9.13346 14.4109 10.9276 13.81C11.1929 13.7161 11.3957 13.5283 11.5361 13.2467L12.1446 12.0355ZM7.39387 2.4022C7.26906 2.4022 7.20665 2.32239 7.20665 2.16277C7.20665 2.00316 7.26906 1.92335 7.39387 1.92335C8.43918 1.92335 9.33238 2.36934 10.0735 3.2613C10.8145 4.15327 11.1851 5.22833 11.1851 6.48647C11.1851 6.65548 11.1188 6.73998 10.9862 6.73998C10.8535 6.73998 10.7872 6.65548 10.7872 6.48647C10.7872 5.35978 10.4557 4.39739 9.79262 3.59931C9.12955 2.80124 8.32997 2.4022 7.39387 2.4022ZM7.39387 3.8669C7.26906 3.8669 7.20665 3.7871 7.20665 3.62748C7.20665 3.46786 7.26906 3.38806 7.39387 3.38806C8.11155 3.38806 8.72391 3.6932 9.23097 4.3035C9.73802 4.91379 9.99155 5.64145 9.99155 6.48647C9.99155 6.65548 9.92524 6.73998 9.79262 6.73998C9.66001 6.73998 9.5937 6.65548 9.5937 6.48647C9.5937 5.7729 9.37918 5.15791 8.95014 4.64151C8.52109 4.1251 8.00234 3.8669 7.39387 3.8669ZM7.39387 5.30344C7.26906 5.30344 7.20665 5.22363 7.20665 5.06402C7.20665 4.9044 7.26906 4.8246 7.39387 4.8246C7.78391 4.8246 8.11545 4.98891 8.38848 5.31753C8.66151 5.64615 8.79802 6.0358 8.79802 6.48647C8.79802 6.65548 8.73171 6.73998 8.5991 6.73998C8.46649 6.73998 8.40018 6.65548 8.40018 6.48647C8.40018 6.16724 8.30267 5.89026 8.10765 5.65553C7.91263 5.42081 7.6747 5.30344 7.39387 5.30344Z" fill="url(#paint0_linear_2079_887)"/>
<defs>
<linearGradient id="paint0_linear_2079_887" x1="9.1359" y1="-1.1356" x2="-0.932012" y2="0.859391" gradientUnits="userSpaceOnUse">
<stop offset="0.0252672" stop-color="#5BD6DD"/>
<stop offset="0.689" stop-color="#036DED"/>
</linearGradient>
</defs>
</svg>
